# xmcd
#
# Track frame offsets:
#	150
#	15844
#	32446
#	47755
#	64466
#	81650
#	101407
#	119635
#	136685
#	154286
#	172264
#	187343
#	204668
#	220700
#	239331
#	259261
#	276727
#
# Disc length: 3963 seconds
#
# Revision: 0
# Processed by: cddbd v1.5PL3 Copyright (c) Steve Scherf et al.
# Submitted via: dBpowerAMP V4.0
#
DISCID=070f7911
DTITLE=Jagged Edge - The Hits and Unreleased Vol. 1
DYEAR=2003
DGENRE=R&B
TTITLE0=The Way That You Talk (Feat. Da Brat and Jermaine Dupri)
TTITLE1=Can't Wait
TTITLE2=Gotta Be
TTITLE3=Keys To The Range (Feat. Jermaine Dupri)
TTITLE4=He Can't Love U
TTITLE5=Let's Get Married
TTITLE6=Promise
TTITLE7=Dreamed Of You
TTITLE8=Where The Party At (Feat. Nelly)
TTITLE9=Goodbye
TTITLE10=I Got It 2 (Feat. Nas)
TTITLE11=All Out Of Love
TTITLE12=He Can't Love U (Jd's Remix)
TTITLE13=Let's Get Married (Remarkable Remix) (Feat. Run DMC)
TTITLE14=Promise (Cool Jd Remix) (Feat. Loon)
TTITLE15=Where The Party At (11-01-01 Remix) (Feat. Jermaine Dupri, Da Brat, R.O.C., Lil Bow Wow and Tigah)
TTITLE16=Walked Outta Heaven (Too Hot Remix)
EXTD=
EXTT0=
EXTT1=
EXTT2=
EXTT3=
EXTT4=
EXTT5=
EXTT6=
EXTT7=
EXTT8=
EXTT9=
EXTT10=
EXTT11=
EXTT12=
EXTT13=
EXTT14=
EXTT15=
EXTT16=
PLAYORDER=
